<svg width="39" height="67" viewBox="0 0 39 67" fill="none" xmlns="http://www.w3.org/2000/svg">
<path d="M13.6667 46.3334H24.3334L29.8304 28.7432C31.3976 23.7273 30.4022 18.2615 27.167 14.1204L20.2608 5.28055C19.6203 4.4606 18.3798 4.4606 17.7392 5.28055L10.833 14.1204C7.59782 18.2615 6.6023 23.7273 8.16976 28.7432L13.6667 46.3334ZM13.6667 46.3334L5.6667 51.6667C5.6667 51.6667 0.333362 41 9.6667 34.3333M13.6667 54.3334C13.6667 59.6667 19 62.3334 19 62.3334C19 62.3334 24.3334 59.6667 24.3334 54.3334M29.4832 34.3333C38.8166 41 33.4832 51.6667 33.4832 51.6667L25.4832 46.3333M19 30.3333C16.0544 30.3333 13.6667 27.9456 13.6667 25C13.6667 22.0545 16.0544 19.6667 19 19.6667C21.9456 19.6667 24.3334 22.0545 24.3334 25C24.3334 27.9456 21.9456 30.3333 19 30.3333Z" stroke="black" stroke-width="8" stroke-linecap="round" stroke-linejoin="round"/>
<path d="M13.6667 46.3334H24.3334L29.8304 28.7432C31.3976 23.7273 30.4022 18.2615 27.167 14.1204L20.2608 5.28055C19.6203 4.4606 18.3798 4.4606 17.7392 5.28055L10.833 14.1204C7.59782 18.2615 6.6023 23.7273 8.16976 28.7432L13.6667 46.3334ZM13.6667 46.3334L5.6667 51.6667C5.6667 51.6667 0.333362 41 9.6667 34.3333M13.6667 54.3334C13.6667 59.6667 19 62.3334 19 62.3334C19 62.3334 24.3334 59.6667 24.3334 54.3334M29.4832 34.3333C38.8166 41 33.4832 51.6667 33.4832 51.6667L25.4832 46.3333M19 30.3333C16.0544 30.3333 13.6667 27.9456 13.6667 25C13.6667 22.0545 16.0544 19.6667 19 19.6667C21.9456 19.6667 24.3334 22.0545 24.3334 25C24.3334 27.9456 21.9456 30.3333 19 30.3333Z" stroke="#B9B9B9" stroke-width="3" stroke-linecap="round" stroke-linejoin="round"/>
</svg>
